<svg xmlns="http://www.w3.org/2000/svg" width="800" height="450" viewBox="0 0 800 450">
  <defs>
    <linearGradient id="gaugeGradient" x1="0%" y1="0%" x2="100%" y2="0%">
      <stop offset="0%" style="stop-color:#1a3a5f;stop-opacity:1"/>
      <stop offset="100%" style="stop-color:#48b0a9;stop-opacity:1"/>
    </linearGradient>
  </defs>

  <path d="M 315 295 A 130 130 0 1 1 485 295" fill="none" stroke="url(#gaugeGradient)" stroke-width="32" stroke-dasharray="10, 15"/>

  <g fill="none" stroke="#2d5a82" stroke-width="3">
    <path d="M 400 125 L 470 165 L 470 245 L 400 285 L 330 245 L 330 165 Z"/>
    <line x1="400" y1="125" x2="400" y2="285"/>
    <line x1="470" y1="165" x2="330" y2="245"/>
    <line x1="470" y1="245" x2="330" y2="165"/>
  </g>

  <g fill="#2d5a82">
    <circle cx="400" cy="125" r="10"/> 
    <circle cx="470" cy="165" r="10"/> 
    <circle cx="470" cy="245" r="10"/> 
    <circle cx="400" cy="285" r="10"/> 
    <circle cx="330" cy="245" r="10"/> 
    <circle cx="330" cy="165" r="10"/> 
    <circle cx="400" cy="205" r="12"/> 
  </g>

</svg>